<?xml version="1.0" standalone="no"?>
<!DOCTYPE svg PUBLIC "-//W3C//DTD SVG 20010904//EN"
 "http://www.w3.org/TR/2001/REC-SVG-20010904/DTD/svg10.dtd">
<svg version="1.0" xmlns="http://www.w3.org/2000/svg"
 width="300.000000pt" height="300.000000pt" viewBox="0 0 300.000000 300.000000"
 preserveAspectRatio="xMidYMid meet">

<g transform="translate(0.000000,300.000000) scale(0.100000,-0.100000)"
fill="#000000" stroke="none">
<path d="M469 2919 c-27 -10 -32 -20 -60 -108 -12 -38 -23 -50 -74 -81 -51
-30 -64 -45 -90 -97 -16 -34 -38 -70 -47 -80 -23 -25 -23 -39 2 -70 11 -14 20
-35 20 -47 0 -30 -28 -66 -51 -66 -33 0 -69 -44 -69 -85 0 -20 -9 -53 -20 -75
-35 -68 -28 -96 44 -181 66 -77 64 -77 229 -147 31 -13 38 -20 33 -36 -3 -12
-14 -61 -26 -109 -24 -104 -39 -135 -114 -239 -143 -199 -164 -315 -111 -623
28 -168 81 -350 116 -398 18 -24 20 -37 14 -95 -4 -37 -9 -75 -11 -84 -3 -11
6 -29 21 -44 27 -27 27 -27 148 -21 147 6 171 14 192 63 21 51 19 66 -14 98
-73 70 -61 196 38 406 33 69 65 143 73 165 10 28 20 40 33 40 18 0 21 -9 26
-75 17 -200 72 -365 176 -521 43 -64 45 -70 38 -117 -5 -38 -3 -51 9 -62 13
-10 15 -25 10 -75 -6 -55 -4 -63 12 -70 34 -13 187 -17 278 -7 105 12 116 21
116 97 0 46 -3 52 -29 68 -45 27 -46 47 -6 127 78 156 118 301 118 430 1 105
-13 166 -44 202 l-21 23 8 -25 c11 -39 9 -99 -4 -112 -16 -16 -111 14 -152 49
-34 28 -90 130 -83 151 6 16 56 42 83 42 11 0 20 7 20 15 0 31 57 6 114 -50 8
-8 37 -20 63 -25 26 -5 71 -16 98 -23 l50 -13 2 -95 c0 -52 8 -114 16 -139 62
-189 122 -342 152 -392 19 -33 35 -70 35 -82 0 -23 -33 -66 -51 -66 -5 0 -27
-11 -47 -25 -22 -15 -51 -25 -73 -25 -69 0 -75 -60 -7 -75 60 -14 202 -10 293
8 50 9 133 17 185 17 116 1 135 11 126 67 -6 31 -2 44 18 72 14 19 28 49 32
67 7 37 -18 168 -46 242 -32 83 -121 232 -164 273 -38 37 -39 38 -22 63 20 32
62 60 75 51 6 -3 27 -36 48 -73 20 -37 58 -95 85 -129 50 -64 203 -213 218
-213 5 0 21 -17 35 -37 20 -30 25 -50 25 -99 0 -72 -17 -94 -74 -94 -43 0 -53
-17 -34 -57 12 -25 19 -28 68 -29 104 -3 135 18 204 133 20 34 60 80 89 104
66 53 147 139 147 154 0 7 -9 20 -20 30 -22 20 -25 46 -10 76 8 14 6 28 -10
59 -45 88 -140 166 -301 246 -52 26 -97 52 -102 58 -4 6 -6 130 -5 276 3 311
3 315 -103 422 -51 51 -75 67 -119 80 -95 29 -200 42 -360 44 l-155 2 -143 55
c-186 72 -231 100 -367 230 -62 59 -132 118 -155 131 -37 21 -50 38 -99 138
-74 149 -219 350 -275 382 -67 40 -206 57 -267 35z m-29 -532 c0 -8 -3 -17 -7
-20 -9 -9 -34 13 -27 24 8 14 34 11 34 -4z m-220 -148 c0 -19 -23 -25 -54 -13
-24 9 -19 21 12 32 33 11 42 7 42 -19z m881 -12 c67 -30 145 -135 119 -161 -5
-5 -10 -33 -10 -61 0 -61 -10 -73 -143 -159 -98 -63 -126 -76 -166 -76 -45 0
-121 31 -137 56 -9 13 -23 26 -32 29 -21 6 -56 66 -70 119 -8 28 -8 53 0 89 8
39 7 51 -3 57 -28 18 42 72 139 107 58 21 80 23 167 20 60 -3 114 -11 136 -20z
m254 -138 c54 -36 168 -91 274 -131 58 -22 114 -44 125 -51 14 -7 76 -10 181
-8 113 2 181 -2 233 -13 76 -16 167 -59 182 -86 12 -22 -3 -93 -28 -128 -12
-16 -22 -34 -22 -38 0 -4 -6 -15 -13 -23 -8 -9 -19 -36 -26 -61 -20 -71 -71
-144 -129 -187 -29 -21 -58 -39 -65 -41 -6 -1 -21 -14 -32 -29 -40 -52 -144
-150 -174 -162 -23 -10 -41 -10 -88 0 -32 7 -69 13 -83 14 -22 0 -25 4 -22 35
4 49 46 172 109 319 30 69 55 139 55 154 2 48 -28 67 -119 76 -86 9 -137 31
-247 106 -48 33 -64 52 -93 109 -27 54 -62 145 -63 164 0 7 19 -1 45 -19z
m-627 -701 c14 -14 16 -68 2 -68 -13 0 -30 34 -30 59 0 24 10 27 28 9z m1963
-415 c13 -15 12 -15 -8 -4 -24 12 -29 21 -14 21 5 0 15 -7 22 -17z m84 -47
c17 -13 27 -27 23 -31 -7 -7 -78 36 -78 48 0 14 26 6 55 -17z"/>
</g>
</svg>
